<svg width="84" height="84" viewBox="0 0 84 84" fill="none" xmlns="http://www.w3.org/2000/svg">
<circle cx="42" cy="42" r="42" fill="white"/>
<circle cx="42.0001" cy="42" r="37.8" fill="#839073"/>
<path d="M41.7344 20.0625C33.7001 20.0625 27.1875 26.4894 27.1875 34.418C27.1875 48.7734 41.7344 66 41.7344 66C41.7344 66 56.2812 48.7734 56.2812 34.418C56.2812 26.4894 49.7686 20.0625 41.7344 20.0625ZM41.7344 43.2107C36.8132 43.2107 32.8244 39.2744 32.8244 34.418C32.8244 29.5615 36.8132 25.6252 41.7344 25.6252C46.6556 25.6252 50.6443 29.5615 50.6443 34.418C50.6443 39.2744 46.6556 43.2107 41.7344 43.2107ZM36.0975 34.418C36.0975 31.3459 38.6213 28.8552 41.7344 28.8552C44.8474 28.8552 47.3713 31.3459 47.3713 34.418C47.3713 37.49 44.8474 39.9807 41.7344 39.9807C38.6213 39.9807 36.0975 37.49 36.0975 34.418Z" fill="white"/>
</svg>
