<svg width="112" height="29" viewBox="0 0 112 29" fill="none" xmlns="http://www.w3.org/2000/svg">
<rect width="112" height="29" rx="10" fill="#214E34"/>
<path d="M8.18769 21.064H7.88369C7.92635 20.584 8.20902 19.176 8.73169 16.84C9.25435 14.4933 9.57969 12.7387 9.70769 11.576C9.70769 11.4053 9.64902 11.2027 9.53169 10.968C9.42502 10.7227 9.31302 10.5253 9.19569 10.376L9.03569 10.152L9.08369 9.912C9.68102 9.73067 10.7104 9.64 12.1717 9.64C12.3104 9.896 12.3797 10.264 12.3797 10.744C12.3797 11.2133 12.113 12.5467 11.5797 14.744H11.6597C12.609 14.744 13.2864 14.3867 13.6917 13.672C14.1077 12.9467 14.417 11.7307 14.6197 10.024C15.377 9.768 16.1717 9.64 17.0037 9.64C17.025 9.71467 17.0304 9.896 17.0197 10.184C17.0197 10.472 16.9664 10.8453 16.8597 11.304C16.753 11.752 16.593 12.2267 16.3797 12.728C16.177 13.2293 15.873 13.704 15.4677 14.152C15.073 14.5893 14.6144 14.9413 14.0917 15.208C14.7104 17.32 15.2437 18.696 15.6917 19.336C15.8837 19.6027 16.033 19.736 16.1397 19.736C16.3317 19.736 16.6304 19.64 17.0357 19.448L17.2277 19.352L17.5957 19.944C17.201 20.3067 16.7424 20.6053 16.2197 20.84C15.7077 21.0747 15.2224 21.192 14.7637 21.192C14.305 21.192 13.9424 21.0107 13.6757 20.648C13.4197 20.2853 13.201 19.8373 13.0197 19.304C12.849 18.76 12.6677 18.12 12.4757 17.384C12.2837 16.648 12.1557 16.0933 12.0917 15.72C11.9957 15.7307 11.745 15.736 11.3397 15.736C10.7104 18.4027 10.3957 20.072 10.3957 20.744C9.97969 20.9573 9.24369 21.064 8.18769 21.064ZM22.5839 14.376C22.6053 14.3547 22.6639 14.216 22.7599 13.96C23.2613 13.96 23.9333 14.1093 24.7759 14.408C24.5093 15.2933 24.2959 16.2213 24.1359 17.192C23.9759 18.152 23.8959 18.84 23.8959 19.256C23.8959 19.6613 23.9386 19.864 24.0239 19.864C24.0879 19.864 24.3226 19.7627 24.7279 19.56L24.9199 19.464L25.2079 20.024C25.1119 20.1093 24.9839 20.216 24.8239 20.344C24.6746 20.472 24.3866 20.648 23.9599 20.872C23.5333 21.0853 23.1493 21.192 22.8079 21.192C22.1466 21.192 21.7626 20.8933 21.6559 20.296C20.9733 20.8933 20.3546 21.192 19.7999 21.192C19.2559 21.192 18.7919 20.9787 18.4079 20.552C18.0346 20.1253 17.8479 19.4533 17.8479 18.536C17.8479 17.1067 18.1413 15.9813 18.7279 15.16C19.3146 14.328 20.0239 13.912 20.8559 13.912C21.4533 13.912 22.0293 14.0667 22.5839 14.376ZM20.7599 19.832C21.0159 19.832 21.3039 19.7307 21.6239 19.528C21.6986 18.024 21.9493 16.536 22.3759 15.064C22.0559 14.9253 21.7839 14.856 21.5599 14.856C21.1759 14.856 20.8453 15.2347 20.5679 15.992C20.3013 16.7387 20.1679 17.5653 20.1679 18.472C20.1679 19.3787 20.3653 19.832 20.7599 19.832ZM25.8234 21.048H25.7114C25.6901 20.9627 25.6794 20.7707 25.6794 20.472C25.6794 20.1627 25.8234 19.3413 26.1114 18.008C26.3994 16.6747 26.5434 15.912 26.5434 15.72C26.5434 15.3893 26.3941 15.0267 26.0954 14.632L25.9514 14.44L25.9674 14.232C26.5434 14.072 27.4661 13.992 28.7354 13.992C28.8634 14.2693 28.9274 14.6587 28.9274 15.16C29.0448 14.968 29.2901 14.712 29.6634 14.392C30.0368 14.072 30.4208 13.912 30.8154 13.912C31.3914 13.912 31.6794 14.4133 31.6794 15.416C31.6261 15.48 31.5514 15.5653 31.4554 15.672C31.3701 15.768 31.1888 15.9067 30.9114 16.088C30.6448 16.2693 30.3834 16.3813 30.1274 16.424C30.1168 16.424 30.0261 16.28 29.8554 15.992C29.6848 15.704 29.5568 15.56 29.4714 15.56C29.2048 15.656 28.9701 15.816 28.7674 16.04C28.2768 18.248 28.0314 19.6773 28.0314 20.328C28.0314 20.5627 28.0368 20.728 28.0474 20.824C27.6741 20.9733 26.9328 21.048 25.8234 21.048ZM36.0996 14.376C36.1209 14.3547 36.1796 14.216 36.2756 13.96C36.7769 13.96 37.4489 14.1093 38.2916 14.408C38.0249 15.2933 37.8116 16.2213 37.6516 17.192C37.4916 18.152 37.4116 18.84 37.4116 19.256C37.4116 19.6613 37.4542 19.864 37.5396 19.864C37.6036 19.864 37.8382 19.7627 38.2436 19.56L38.4356 19.464L38.7236 20.024C38.6276 20.1093 38.4996 20.216 38.3396 20.344C38.1902 20.472 37.9022 20.648 37.4756 20.872C37.0489 21.0853 36.6649 21.192 36.3236 21.192C35.6622 21.192 35.2782 20.8933 35.1716 20.296C34.4889 20.8933 33.8702 21.192 33.3156 21.192C32.7716 21.192 32.3076 20.9787 31.9236 20.552C31.5502 20.1253 31.3636 19.4533 31.3636 18.536C31.3636 17.1067 31.6569 15.9813 32.2436 15.16C32.8302 14.328 33.5396 13.912 34.3716 13.912C34.9689 13.912 35.5449 14.0667 36.0996 14.376ZM34.2756 19.832C34.5316 19.832 34.8196 19.7307 35.1396 19.528C35.2142 18.024 35.4649 16.536 35.8916 15.064C35.5716 14.9253 35.2996 14.856 35.0756 14.856C34.6916 14.856 34.3609 15.2347 34.0836 15.992C33.8169 16.7387 33.6836 17.5653 33.6836 18.472C33.6836 19.3787 33.8809 19.832 34.2756 19.832ZM40.5711 13.912C41.0404 13.912 41.3871 14.008 41.6111 14.2C41.8457 14.392 41.9631 14.7867 41.9631 15.384C41.9631 15.704 41.8671 16.36 41.6751 17.352C41.4831 18.3333 41.3871 18.9307 41.3871 19.144C41.3871 19.5707 41.4724 19.784 41.6431 19.784C42.0484 19.784 42.4911 19.4853 42.9711 18.888C43.4617 18.28 43.7177 17.7733 43.7391 17.368L42.6511 16.152C42.6937 15.6933 42.8057 15.2773 42.9871 14.904C43.1684 14.5307 43.3391 14.2693 43.4991 14.12L43.7231 13.912C44.1817 13.912 44.5284 14.0347 44.7631 14.28C44.9977 14.5253 45.1151 14.8133 45.1151 15.144C45.1151 15.9867 44.9071 16.8773 44.4911 17.816C44.0751 18.7547 43.5204 19.5547 42.8271 20.216C42.1337 20.8667 41.4297 21.192 40.7151 21.192C40.2671 21.192 39.9204 21.0533 39.6751 20.776C39.4404 20.4987 39.3231 20.136 39.3231 19.688C39.3231 19.2293 39.3551 18.616 39.4191 17.848C39.4937 17.08 39.5311 16.3173 39.5311 15.56C39.5311 15.3893 39.4671 15.1867 39.3391 14.952C39.2217 14.7173 39.0991 14.5307 38.9711 14.392L39.0191 14.2C39.5951 14.008 40.1124 13.912 40.5711 13.912ZM50.0839 14.376C50.1053 14.3547 50.1639 14.216 50.2599 13.96C50.7613 13.96 51.4333 14.1093 52.2759 14.408C52.0093 15.2933 51.7959 16.2213 51.6359 17.192C51.4759 18.152 51.3959 18.84 51.3959 19.256C51.3959 19.6613 51.4386 19.864 51.5239 19.864C51.5879 19.864 51.8226 19.7627 52.2279 19.56L52.4199 19.464L52.7079 20.024C52.6119 20.1093 52.4839 20.216 52.3239 20.344C52.1746 20.472 51.8866 20.648 51.4599 20.872C51.0333 21.0853 50.6493 21.192 50.3079 21.192C49.6466 21.192 49.2626 20.8933 49.1559 20.296C48.4733 20.8933 47.8546 21.192 47.2999 21.192C46.7559 21.192 46.2919 20.9787 45.9079 20.552C45.5346 20.1253 45.3479 19.4533 45.3479 18.536C45.3479 17.1067 45.6413 15.9813 46.2279 15.16C46.8146 14.328 47.5239 13.912 48.3559 13.912C48.9533 13.912 49.5293 14.0667 50.0839 14.376ZM48.2599 19.832C48.5159 19.832 48.8039 19.7307 49.1239 19.528C49.1986 18.024 49.4493 16.536 49.8759 15.064C49.5559 14.9253 49.2839 14.856 49.0599 14.856C48.6759 14.856 48.3453 15.2347 48.0679 15.992C47.8013 16.7387 47.6679 17.5653 47.6679 18.472C47.6679 19.3787 47.8653 19.832 48.2599 19.832ZM53.4354 21.048H53.1314C53.1314 20.5467 53.2808 19.5867 53.5794 18.168C53.8888 16.7493 54.0434 15.944 54.0434 15.752C54.0434 15.4 53.8941 15.0267 53.5954 14.632L53.4514 14.44L53.4674 14.232C54.0434 14.072 54.9661 13.992 56.2354 13.992C56.3741 14.1733 56.4488 14.504 56.4594 14.984C57.3874 14.2693 58.1714 13.912 58.8114 13.912C59.1954 13.912 59.4994 14.0453 59.7234 14.312C59.9581 14.5787 60.0754 14.9147 60.0754 15.32C60.0754 15.7147 59.9528 16.4027 59.7074 17.384C59.4621 18.3653 59.3394 19.0267 59.3394 19.368C59.3394 19.6987 59.3821 19.864 59.4674 19.864C59.5314 19.864 59.7554 19.7627 60.1394 19.56L60.3314 19.464L60.6194 20.024C60.5234 20.1093 60.3954 20.216 60.2354 20.344C60.0754 20.472 59.7768 20.648 59.3394 20.872C58.9128 21.0853 58.5288 21.192 58.1874 21.192C57.4088 21.192 57.0194 20.7493 57.0194 19.864C57.0194 19.4907 57.1368 18.8027 57.3714 17.8C57.6168 16.7973 57.7394 16.152 57.7394 15.864C57.7394 15.576 57.6488 15.432 57.4674 15.432C57.1581 15.432 56.7794 15.5653 56.3314 15.832C56.2994 16.0133 56.1928 16.4933 56.0114 17.272C55.6381 18.9467 55.4514 20.1307 55.4514 20.824C55.0781 20.9733 54.4061 21.048 53.4354 21.048ZM64.4596 19.8C64.4596 19.3413 64.5982 18.5627 64.8756 17.464C65.1529 16.3547 65.2916 15.6773 65.2916 15.432C65.2916 15.176 65.0996 14.84 64.7156 14.424L64.7316 14.216C65.4569 14.0667 66.4116 13.992 67.5956 13.992C67.6489 14.1307 67.6756 14.3813 67.6756 14.744C67.6756 15.1067 67.5262 15.88 67.2276 17.064C66.9289 18.248 66.7796 18.984 66.7796 19.272C66.7796 19.56 66.8862 19.704 67.0996 19.704C67.4089 19.704 67.7662 19.592 68.1716 19.368C68.2142 19.112 68.3209 18.6213 68.4916 17.896C68.8756 16.1893 69.0676 14.968 69.0676 14.232C69.4409 14.0827 70.1129 14.008 71.0836 14.008H71.3876C71.3876 14.5093 71.2382 15.4907 70.9396 16.952C70.6409 18.4027 70.4916 19.256 70.4916 19.512C70.4916 19.7573 70.5449 19.88 70.6516 19.88C70.7156 19.88 71.0196 19.752 71.5636 19.496L71.8676 20.008C70.9182 20.7973 70.0862 21.192 69.3716 21.192C69.0302 21.192 68.7369 21.096 68.4916 20.904C68.2569 20.712 68.1236 20.4613 68.0916 20.152C67.2276 20.856 66.4436 21.208 65.7396 21.208C65.3662 21.208 65.0569 21.0853 64.8116 20.84C64.5769 20.5947 64.4596 20.248 64.4596 19.8ZM82.7191 20.232C82.5911 20.5627 82.3884 20.824 82.1111 21.016C81.8444 21.208 81.5244 21.304 81.1511 21.304C80.7884 21.304 80.2391 21.08 79.5031 20.632C78.7777 20.184 78.1964 19.896 77.7591 19.768C77.4711 20.152 77.1457 20.472 76.7831 20.728C76.4204 20.984 76.1697 21.112 76.0311 21.112C75.9244 21.112 75.7111 20.8827 75.3911 20.424C75.0711 19.9547 74.9111 19.6187 74.9111 19.416C74.9111 19.2987 75.0764 19.1227 75.4071 18.888C75.7484 18.6533 76.1057 18.4933 76.4791 18.408C76.7457 17.7573 77.0231 16.7973 77.3111 15.528C77.5991 14.248 77.8231 12.9307 77.9831 11.576C77.9831 11.4053 77.9244 11.2027 77.8071 10.968C77.7004 10.7227 77.5884 10.5253 77.4711 10.376L77.3111 10.152L77.3591 9.912C77.9991 9.73067 79.0497 9.64 80.5111 9.64C80.6497 9.87467 80.7191 10.232 80.7191 10.712C80.7191 11.192 80.5804 11.9067 80.3031 12.856C80.0257 13.8053 79.6417 14.9467 79.1511 16.28C78.6711 17.6027 78.3937 18.3867 78.3191 18.632C78.3617 18.6427 78.4951 18.68 78.7191 18.744C78.9431 18.808 79.0871 18.8507 79.1511 18.872C79.2257 18.8827 79.3644 18.9147 79.5671 18.968C79.7697 19.0107 79.9297 19.0427 80.0471 19.064C80.1644 19.0747 80.3191 19.0907 80.5111 19.112C80.8417 19.1653 81.1511 19.192 81.4391 19.192C81.7377 19.192 81.9511 19.1173 82.0791 18.968L82.5271 18.136L83.0551 18.264C83.0551 18.9573 82.9431 19.6133 82.7191 20.232ZM88.3027 14.376C88.324 14.3547 88.3827 14.216 88.4787 13.96C88.98 13.96 89.652 14.1093 90.4947 14.408C90.228 15.2933 90.0147 16.2213 89.8547 17.192C89.6947 18.152 89.6147 18.84 89.6147 19.256C89.6147 19.6613 89.6574 19.864 89.7427 19.864C89.8067 19.864 90.0414 19.7627 90.4467 19.56L90.6387 19.464L90.9267 20.024C90.8307 20.1093 90.7027 20.216 90.5427 20.344C90.3934 20.472 90.1054 20.648 89.6787 20.872C89.252 21.0853 88.868 21.192 88.5267 21.192C87.8654 21.192 87.4814 20.8933 87.3747 20.296C86.692 20.8933 86.0734 21.192 85.5187 21.192C84.9747 21.192 84.5107 20.9787 84.1267 20.552C83.7534 20.1253 83.5667 19.4533 83.5667 18.536C83.5667 17.1067 83.86 15.9813 84.4467 15.16C85.0334 14.328 85.7427 13.912 86.5747 13.912C87.172 13.912 87.748 14.0667 88.3027 14.376ZM86.4787 19.832C86.7347 19.832 87.0227 19.7307 87.3427 19.528C87.4174 18.024 87.668 16.536 88.0947 15.064C87.7747 14.9253 87.5027 14.856 87.2787 14.856C86.8947 14.856 86.564 15.2347 86.2867 15.992C86.02 16.7387 85.8867 17.5653 85.8867 18.472C85.8867 19.3787 86.084 19.832 86.4787 19.832ZM95.3662 9.832C95.3662 10.6427 95.0942 12.232 94.5502 14.6C95.1902 14.1413 95.7662 13.912 96.2782 13.912C96.8009 13.912 97.2435 14.1307 97.6062 14.568C97.9795 14.9947 98.1662 15.6507 98.1662 16.536C98.1662 18.0187 97.8729 19.1653 97.2862 19.976C96.7102 20.7867 96.0062 21.192 95.1742 21.192C94.8649 21.192 94.5502 21.1547 94.2302 21.08C93.9209 21.0053 93.6862 20.9253 93.5262 20.84L93.2862 20.728C92.6035 20.9627 91.9369 21.08 91.2862 21.08C91.2222 21.0267 91.1902 20.7707 91.1902 20.312C91.1902 19.8427 91.4889 18.3067 92.0862 15.704C92.6835 13.0907 92.9822 11.304 92.9822 10.344C92.9822 10.1733 92.9555 9.95467 92.9022 9.688C93.7342 9.4 94.5289 9.256 95.2862 9.256C95.3395 9.40533 95.3662 9.59733 95.3662 9.832ZM95.2222 15.272C95.0195 15.272 94.7155 15.368 94.3102 15.56C93.8195 17.6293 93.5529 19.112 93.5102 20.008C93.8302 20.1467 94.1342 20.216 94.4222 20.216C94.8275 20.216 95.1635 19.8427 95.4302 19.096C95.7075 18.3493 95.8462 17.528 95.8462 16.632C95.8462 15.7253 95.6382 15.272 95.2222 15.272ZM98.8457 18.232C98.8457 16.8987 99.2457 15.848 100.046 15.08C100.856 14.3013 101.774 13.912 102.798 13.912C103.427 13.912 103.944 14.0667 104.35 14.376C104.755 14.6853 104.958 15.1013 104.958 15.624C104.958 16.136 104.824 16.568 104.558 16.92C104.302 17.272 103.987 17.544 103.614 17.736C102.856 18.1093 102.163 18.344 101.534 18.44L101.15 18.488C101.224 19.4907 101.635 19.992 102.382 19.992C102.638 19.992 102.91 19.928 103.198 19.8C103.486 19.672 103.71 19.544 103.87 19.416L104.11 19.224L104.494 19.736C104.408 19.8533 104.238 20.008 103.982 20.2C103.726 20.392 103.486 20.552 103.262 20.68C102.643 21.0213 101.966 21.192 101.23 21.192C100.494 21.192 99.9124 20.9307 99.4857 20.408C99.059 19.8853 98.8457 19.16 98.8457 18.232ZM101.134 17.704C101.678 17.608 102.11 17.3787 102.43 17.016C102.75 16.6533 102.91 16.184 102.91 15.608C102.91 15.032 102.739 14.744 102.398 14.744C101.992 14.744 101.678 15.0907 101.454 15.784C101.24 16.4667 101.134 17.1067 101.134 17.704Z" fill="white"/>
</svg>
