<svg width="31" height="47" viewBox="0 0 31 47" fill="none" xmlns="http://www.w3.org/2000/svg">
<path d="M15.5 0C7.38809 0 0.8125 6.57559 0.8125 14.6875C0.8125 29.375 15.5 47 15.5 47C15.5 47 30.1875 29.375 30.1875 14.6875C30.1875 6.57559 23.6119 0 15.5 0ZM15.5 23.6836C10.5312 23.6836 6.50391 19.6563 6.50391 14.6875C6.50391 9.71872 10.5312 5.69141 15.5 5.69141C20.4688 5.69141 24.4961 9.71872 24.4961 14.6875C24.4961 19.6563 20.4688 23.6836 15.5 23.6836ZM9.80859 14.6875C9.80859 11.5444 12.3569 8.99609 15.5 8.99609C18.6431 8.99609 21.1914 11.5444 21.1914 14.6875C21.1914 17.8306 18.6431 20.3789 15.5 20.3789C12.3569 20.3789 9.80859 17.8306 9.80859 14.6875Z" fill="black"/>
</svg>
