<svg width="50" height="50" viewBox="0 0 50 50" fill="none" xmlns="http://www.w3.org/2000/svg">
<path fill-rule="evenodd" clip-rule="evenodd" d="M6.25001 25C6.25001 14.6446 14.6447 6.24998 25 6.24998C35.3554 6.24998 43.75 14.6446 43.75 25C43.75 30.6705 41.2328 35.753 37.2549 39.1912C36.1063 33.4734 31.0561 29.1666 25 29.1666C18.9439 29.1666 13.8938 33.4734 12.7451 39.1912C8.76719 35.753 6.25001 30.6705 6.25001 25ZM16.6667 41.801C19.177 43.0485 22.0066 43.75 25 43.75C27.9934 43.75 30.823 43.0485 33.3333 41.801V41.6666C33.3333 37.0643 29.6024 33.3333 25 33.3333C20.3976 33.3333 16.6667 37.0643 16.6667 41.6666V41.801ZM25 2.08331C12.3435 2.08331 2.08334 12.3435 2.08334 25C2.08334 37.6565 12.3435 47.9166 25 47.9166C37.6565 47.9166 47.9167 37.6565 47.9167 25C47.9167 12.3435 37.6565 2.08331 25 2.08331ZM25 22.9166C22.6988 22.9166 20.8333 21.0512 20.8333 18.75C20.8333 16.4488 22.6988 14.5833 25 14.5833C27.3012 14.5833 29.1667 16.4488 29.1667 18.75C29.1667 21.0512 27.3012 22.9166 25 22.9166ZM16.6667 18.75C16.6667 23.3524 20.3976 27.0833 25 27.0833C29.6024 27.0833 33.3333 23.3524 33.3333 18.75C33.3333 14.1476 29.6024 10.4166 25 10.4166C20.3976 10.4166 16.6667 14.1476 16.6667 18.75Z" fill="#262626"/>
</svg>
