<svg width="84" height="85" viewBox="0 0 84 85" fill="none" xmlns="http://www.w3.org/2000/svg">
<circle cx="42" cy="42.5" r="42" fill="white"/>
<circle cx="42.0001" cy="42.5" r="37.8" fill="#839073"/>
<path d="M27.1952 48.8167L27.6205 53.2958L34.8733 50.9127C32.8243 50.4601 30.9444 49.9436 29.2749 49.3668C28.5829 49.128 27.8882 48.9455 27.1952 48.8167Z" fill="white" stroke="white" stroke-width="1.56251"/>
<path d="M49.9962 32.1929C52.5684 32.0393 55.2276 31.9593 57.9347 31.9588L58.2859 31.9587C57.17 28.4667 54.7675 26.0479 51.1291 24.7639C50.0424 24.3803 48.9932 24.1532 48.094 24.02C50.1068 26.9699 50.1467 30.4185 49.9962 32.1929Z" fill="white" stroke="white" stroke-width="1.56251"/>
<path d="M54.2812 53.0645C54.2082 54.1468 53.9902 55.9162 53.344 57.4747C53.8381 57.3624 54.3806 57.211 54.9442 57.0075C57.2226 56.1853 58.9663 54.8606 60.1465 53.0618C59.4345 53.095 58.7067 53.1139 57.9597 53.1139C56.7216 53.1139 55.4949 53.0966 54.2812 53.0645Z" fill="white" stroke="white" stroke-width="1.56251"/>
<path d="M27.6252 31.6873L27.2068 36.4981C29.182 35.6566 31.5974 34.9127 34.3501 34.2833L27.6252 31.6873Z" fill="white" stroke="white" stroke-width="1.56251"/>
<path d="M68.916 37.5821C65.9477 35.4456 62.0568 34.2691 57.9596 34.2691C44.8153 34.2691 32.9188 36.1501 26.9127 39.1779C25.9479 39.6649 24.8649 39.9224 23.7812 39.9224C21.8284 39.9224 19.9394 39.1005 18.5989 37.6677L14.2799 33.049C14.9952 36.078 15.7241 39.9413 15.7241 43.1022C15.7241 46.2642 14.9952 50.1274 14.2799 53.1567L18.5987 48.5384C19.9394 47.1051 21.846 46.2832 23.8298 46.2832L24.9432 46.282C26.632 46.2972 28.3416 46.6004 30.0288 47.1826C36.69 49.4837 46.8702 50.8033 57.9595 50.8033C58.125 50.8033 58.2889 50.8021 58.4522 50.8004C55.6336 46.1983 56.9396 40.3572 57.0054 40.0738C57.15 39.4524 57.7713 39.0663 58.3922 39.2104C59.0131 39.3548 59.3996 39.9747 59.2562 40.5956C59.241 40.6618 57.8739 46.8554 61.2256 50.6834C68.5271 50.1252 73.0799 47.6562 73.0799 44.0783C73.0803 41.8873 71.5235 39.4588 68.916 37.5821ZM66.5071 42.6993C65.8692 42.6993 65.3519 42.182 65.3519 41.5441C65.3519 40.9061 65.8692 40.3889 66.5071 40.3889C67.1451 40.3889 67.6624 40.9061 67.6624 41.5441C67.6624 42.182 67.1451 42.6993 66.5071 42.6993Z" fill="white" stroke="white" stroke-width="1.56251"/>
</svg>
