<svg width="50" height="50" viewBox="0 0 50 50" fill="none" xmlns="http://www.w3.org/2000/svg">
<path fill-rule="evenodd" clip-rule="evenodd" d="M10.6244 4.16826C12.2512 2.5401 14.89 2.53936 16.5178 4.16662L24.211 11.8576C25.8381 13.4843 25.8388 16.1218 24.2126 17.7494L21.4858 20.4784L30.3489 29.3402L33.074 26.6129C34.7008 24.9847 37.3396 24.984 38.9673 26.6112L45.8333 33.4752C47.4604 35.1018 47.4611 37.7394 45.8349 39.367L41.293 43.9127C38.6299 46.578 34.5303 47.1728 31.2195 45.3742C19.9749 39.2656 10.738 30.0299 4.6265 18.787C2.82779 15.4781 3.41948 11.3792 6.08189 8.71455L10.6244 4.16826ZM21.2651 14.8043L13.5719 7.11332L9.02939 11.6596C7.67179 13.0183 7.3697 15.1091 8.28727 16.7971C14.0146 27.3333 22.671 35.9884 33.2085 41.7129C34.8968 42.6301 36.9874 42.3268 38.3455 40.9676L42.8874 36.4219L36.0215 29.5579L30.3504 35.2337L15.5942 20.4799L21.2651 14.8043Z" fill="#262626"/>
</svg>
